<?xml version="1.0" encoding="UTF-8"?>
<svg xmlns="http://www.w3.org/2000/svg" xmlns:xlink="http://www.w3.org/1999/xlink"
     width="900" height="300.0" viewBox="-4.5 -2.9 9 3">
<defs>
</defs>
<rect x="-10" y="-10" width="20" height="10" fill="silver" />
<path d="M-0.38928319564948866,-1.7763568394002505e-15 A10.791354573010322,10.791354573010322,0,1,0,-4.13245593478527,-1.7763568394002505e-15 A12.207711290166522,12.207711290166522,0,1,1,-0.3892831956494889,0.0 Z" fill="yellow" />
<path d="M-0.3892831956494882,0.0 A8.445626951949228,8.445626951949228,0,1,0,-4.132455934785281,1.7763568394002505e-15 A9.543832436109533,9.543832436109533,0,1,1,-0.3892831956494891,0.0 Z" fill="yellow" />
<path d="M-0.3892831956494891,0.0 A6.63050597686245,6.63050597686245,0,1,0,-4.132455934785277,8.881784197001252e-16 A7.479556305151385,7.479556305151385,0,1,1,-0.3892831956494889,-8.881784197001252e-16 Z" fill="yellow" />
<path d="M-0.3892831956494902,0.0 A5.23195449478228,5.23195449478228,0,1,0,-4.132455934785286,0.0 A5.885192272730444,5.885192272730444,0,1,1,-0.38928319564948866,-8.881784197001252e-16 Z" fill="yellow" />
<path d="M-0.3892831956494893,4.440892098500626e-16 A4.162106830922049,4.162106830922049,0,1,0,-4.132455934785285,1.3322676295501878e-15 A4.660572505657047,4.660572505657047,0,1,1,-0.38928319564948866,0.0 Z" fill="yellow" />
<path d="M-0.38928319564948843,0.0 A3.3537485222402323,3.3537485222402323,0,1,0,-4.132455934785291,-8.881784197001252e-16 A3.728758797816043,3.728758797816043,0,1,1,-0.3892831956494882,-4.440892098500626e-16 Z" fill="yellow" />
<path d="M-0.38928319564948866,4.440892098500626e-16 A2.756093488158627,2.756093488158627,0,1,0,-4.132455934785291,1.7763568394002505e-15 A3.031208835060306,3.031208835060306,0,1,1,-0.38928319564948843,0.0 Z" fill="yellow" />
<path d="M-0.38928319564948866,-2.220446049250313e-16 A2.331593334118957,2.331593334118957,0,1,0,-4.132455934785295,8.881784197001252e-16 A2.5240982040877618,2.5240982040877618,0,1,1,-0.3892831956494889,-2.220446049250313e-16 Z" fill="yellow" />
<path d="M-0.38928319564948866,1.1102230246251565e-16 A2.053578328645736,2.053578328645736,0,1,0,-4.132455934785292,1.6653345369377348e-15 A2.1755670710969297,2.1755670710969297,0,1,1,-0.3892831956494891,-4.440892098500626e-16 Z" fill="yellow" />
<path d="M-0.3892831956494889,5.551115123125783e-17 A1.904581845469068,1.904581845469068,0,1,0,-4.132455934785295,2.55351295663786e-15 A1.963718549504257,1.963718549504257,0,1,1,-0.38928319564948866,0.0 Z" fill="yellow" />
<path d="M-0.38928319564948843,-1.3877787807814457e-17 A1.8752430017734822,1.8752430017734822,0,0,0,-4.132455934785296,-1.762479051592436e-15 A1.8752430017734814,1.8752430017734814,0,1,1,-0.38928319564948954,-9.71445146547012e-17 Z" fill="yellow" />
<path d="M-0.38928319564948843,3.3306690738754696e-16 A1.9637185495042577,1.9637185495042577,0,0,0,-4.1324559347852965,5.662137425588298e-15 A1.9045818454690688,1.9045818454690688,0,0,1,-0.38928319564948866,5.551115123125783e-17 Z" fill="yellow" />
<path d="M-0.3892831956494942,-9.325873406851315e-15 A2.175567071096932,2.175567071096932,0,0,0,-4.132455934785206,-1.5210055437364645e-13 A2.0535783286457394,2.0535783286457394,0,0,1,-0.3892831956494882,-5.551115123125783e-16 Z" fill="yellow" />
<path d="M-0.38928319564949043,-1.5543122344752192e-15 A2.5240982040877666,2.5240982040877666,0,0,0,-4.132455934785284,-1.6653345369377348e-14 A2.331593334118955,2.331593334118955,0,0,1,-0.389283195649466,3.419486915845482e-14 Z" fill="yellow" />
<path d="M-0.3892831956494891,-4.440892098500626e-16 A3.031208835060308,3.031208835060308,0,0,0,-4.132455934785293,-2.220446049250313e-15 A2.7560934881586263,2.7560934881586263,0,0,1,-0.3892831956494893,-4.440892098500626e-16 Z" fill="yellow" />
<path d="M-0.389283195649488,0.0 A3.7287587978160524,3.7287587978160524,0,0,0,-4.1324559347853125,6.661338147750939e-15 A3.3537485222402417,3.3537485222402417,0,0,1,-0.3892831956494882,4.440892098500626e-16 Z" fill="yellow" />
<path d="M-0.3892831956494889,0.0 A4.660572505657045,4.660572505657045,0,0,0,-4.132455934785291,-8.881784197001252e-16 A4.16210683092206,4.16210683092206,0,0,1,-0.38928319564948777,4.440892098500626e-16 Z" fill="yellow" />
<path d="M-0.38928319564948777,8.881784197001252e-16 A5.885192272730464,5.885192272730464,0,0,0,-4.132455934785302,0.0 A5.231954494782302,5.231954494782302,0,0,1,-0.3892831956494882,0.0 Z" fill="yellow" />
<path d="M-0.3892831956494902,-8.881784197001252e-16 A7.479556305151399,7.479556305151399,0,0,0,-4.132455934785307,1.7763568394002505e-15 A6.630505976862485,6.630505976862485,0,0,1,-0.3892831956494882,0.0 Z" fill="yellow" />
<path d="M-0.38928319564948843,0.0 A9.543832436109652,9.543832436109652,0,0,0,-4.132455934785308,0.0 A8.445626951949277,8.445626951949277,0,0,1,-0.3892831956494871,-1.7763568394002505e-15 Z" fill="yellow" />
<path d="M-0.389283195649486,0.0 A12.207711290166676,12.207711290166676,0,0,0,-4.132455934785318,-1.7763568394002505e-15 A10.791354573010466,10.791354573010466,0,0,1,-0.38928319564948644,0.0 Z" fill="yellow" />
<path d="M-0.38928319564948843,-8.326672684688674e-17 A1.8719925444949694,1.8719925444949694,0,0,0,-4.132455934785296,-2.157996004115148e-15 A1.8719925444949674,1.8719925444949674,0,1,1,-0.3892831956494882,6.938893903907228e-18 Z" fill="#aaaa00" />
<path d="M-3.73205080756888,2.9837243786801082e-15 A2.3667648252334534,2.3667648252334534,0,1,1,1.0000000000000004,2.3592239273284576e-16 A2.3667648252334517,2.3667648252334517,0,0,0,-3.7320508075688776,8.81239525796218e-15 Z" fill="black" />
<path d="M-0.2679491924311228,-1.3183898417423734e-16 A1.7325921016377597,1.7325921016377597,0,0,0,-3.7320508075688745,-1.8457457784393227e-15 A1.7325921016377597,1.7325921016377597,0,1,1,-0.2679491924311228,2.983724378680108e-16 Z" fill="black" />
<path d="M0.9999999999999998,-3.469446951953614e-18 A0.6341727235956905,0.6341727235956905,0,0,0,-0.2679491924311228,-2.0122792321330962e-16 A0.6341727235956908,0.6341727235956908,0,1,1,1.0,4.40619762898109e-16 Z" fill="black" />
<path d="M2.446631805020693,-1.3960665510937926 A1.4285460158133443,1.4285460158133443,0,0,0,-0.16918236979316537,-0.3365246911205239 A0.3455077045754971,0.3455077045754971,0,0,1,0.13250043543218498,-0.26355977967245936 A1.428546015813349,1.428546015813349,0,0,1,1.7921174811551386,-0.6497921282229195 A1.6288220358559253,1.6288220358559253,0,0,1,2.4466318050206928,-1.3960665510937926 Z" fill="blue" />
<path d="M-0.04463936122126433,5.512404513572195e-18 A1.2668615834434862,1.2668615834434862,0,1,1,2.4890838056657083,1.3817190756358387e-15" stroke="red" stroke-width="0.05" fill="none" />
<path d="M-0.04463936122126455,-2.220446049250313e-16 A1.2922833852416422,1.2922833852416422,0,1,1,2.4890838056657083,2.7755575615628914e-16" stroke="green" stroke-width="0.03" fill="none" />
<path d="M-0.04463936122126477,2.9976021664879227e-15 A1.2922833852416407,1.2922833852416407,0,0,1,2.48908380566571,2.6978419498391304e-14" stroke="black" stroke-width="0.03" fill="none" />
<circle cx="-0.0" cy="-0.3333333333333333" r="0.02" fill="green" />
<circle cx="2.0" cy="-1.0" r="0.02" fill="green" />
<path d="M-0.700207538209709,8.326672684688674e-17 A3.1882936144877383,3.1882936144877383,0,1,1,5.671281819617727,2.1649348980190553e-15 A3.1882936144877374,3.1882936144877374,0,0,0,-0.7002075382097099,1.915134717478395e-15 Z" fill="black" />
<path d="M-0.1546335252146679,9.020562075079397e-17 A0.6024252842019673,0.6024252842019673,0,0,0,-1.3585208553330101,2.5673907444456745e-16 A0.6024252842019674,0.6024252842019674,0,1,1,-0.15463352521466778,-3.469446951953614e-17 Z" fill="red" />
<circle cx="-1.0256410256410264" cy="-0.5411560904915869" r="0.05393594231837796" fill="green" />
<path d="M-0.9172293319650524,-0.5492667145641184 A0.10841169367597357,0.10841169367597357,0,0,1,-1.1340527193169996,-0.5492667145641184 A0.10841169367597357,0.10841169367597357,0,0,1,-0.9172293319650524,-0.5492667145641184 L-0.8616685599387184,-0.5628745845309255 A0.16397246570230786,0.16397246570230786,0,1,0,-1.189613491343334,-0.5628745845309255 A0.16397246570230786,0.16397246570230786,0,1,0,-0.8616685599387184,-0.5628745845309255 Z" fill="green" opacity="0.6" />
<path d="M-0.8044666963625865,-0.582115892528399 A0.2211743292784393,0.2211743292784393,0,0,1,-1.2468153549194652,-0.582115892528399 A0.2211743292784393,0.2211743292784393,0,0,1,-0.8044666963625865,-0.582115892528399 L-0.7450512457597769,-0.6071832120342053 A0.28058977988124884,0.28058977988124884,0,1,0,-1.3062308055222747,-0.6071832120342053 A0.28058977988124884,0.28058977988124884,0,1,0,-0.7450512457597769,-0.6071832120342053 Z" fill="green" opacity="0.6" />
<path d="M-0.682827558330434,-0.6383274252073752 A0.3428134673105916,0.3428134673105916,0,0,1,-1.3684544929516171,-0.6383274252073752 A0.3428134673105916,0.3428134673105916,0,0,1,-0.682827558330434,-0.6383274252073752 L-0.6171728784966612,-0.6758602338012774 A0.40846814714436447,0.40846814714436447,0,1,0,-1.4341091727853903,-0.6758602338012774 A0.40846814714436447,0.40846814714436447,0,1,0,-0.6171728784966612,-0.6758602338012774 Z" fill="green" opacity="0.6" />
<path d="M-0.5474301121553822,-0.720157278779532 A0.4782109134856434,0.4782109134856434,0,0,1,-1.503851939126669,-0.7201572787795318 A0.4782109134856434,0.4782109134856434,0,0,1,-0.5474301121553822,-0.720157278779532 L-0.4729012502597003,-0.7716618998570327 A0.5527397753813255,0.5527397753813255,0,1,0,-1.5783808010223512,-0.7716618998570326 A0.5527397753813255,0.5527397753813255,0,1,0,-0.4729012502597003,-0.7716618998570327 Z" fill="green" opacity="0.6" />
<path d="M-0.39284038290974765,-0.8308895725928236 A0.6328006427312775,0.6328006427312775,0,0,1,-1.6584416683723027,-0.8308895725928235 A0.6328006427312775,0.6328006427312775,0,0,1,-0.39284038290974765,-0.8308895725928236 L-0.3064462340356995,-0.8984330674427533 A0.7191947916053258,0.7191947916053258,0,1,0,-1.7448358172463512,-0.8984330674427532 A0.7191947916053258,0.7191947916053258,0,1,0,-0.3064462340356995,-0.8984330674427533 Z" fill="green" opacity="0.6" />
<path d="M-0.2128541419575476,-0.9749683824054326 A0.8127868836834777,0.8127868836834777,0,0,1,-1.838427909324503,-0.9749683824054325 A0.8127868836834777,0.8127868836834777,0,0,1,-0.2128541419575476,-0.9749683824054326 L-0.11112740556038614,-1.0612615086374158 A0.9145136200806396,0.9145136200806396,0,1,0,-1.9401546457216654,-1.0612615086374155 A0.9145136200806396,0.9145136200806396,0,1,0,-0.11112740556038614,-1.0612615086374158 Z" fill="green" opacity="0.6" />
<path d="M-0.00024790947481445613,-1.1581760967501533 A1.0253931161662115,1.0253931161662115,0,0,1,-2.0510341418072375,-1.158176096750153 A1.0253931161662115,1.0253931161662115,0,0,1,-0.00024790947481445613,-1.1581760967501533 L0.12089406556387683,-1.2666821005155957 A1.1465350912049028,1.1465350912049028,0,1,0,-2.172176116845929,-1.2666821005155955 A1.1465350912049028,1.1465350912049028,0,1,0,0.12089406556387683,-1.2666821005155957 Z" fill="green" opacity="0.6" />
<path d="M0.25351094915909855,-1.3878654844895542 A1.2791519748001243,1.2791519748001243,0,0,1,-2.3047930004411503,-1.387865484489554 A1.2791519748001243,1.2791519748001243,0,0,1,0.25351094915909855,-1.3878654844895542 L0.39893001565594655,-1.522939092709983 A1.4245710412969723,1.4245710412969723,0,1,0,-2.450212066937998,-1.5229390927099828 A1.4245710412969723,1.4245710412969723,0,1,0,0.39893001565594655,-1.522939092709983 Z" fill="green" opacity="0.6" />
<path d="M0.5586066679489565,-1.67325478724776 A1.5842476935899825,1.5842476935899825,0,0,1,-2.6098887192310087,-1.6732547872477597 A1.5842476935899825,1.5842476935899825,0,0,1,0.5586066679489565,-1.67325478724776 L0.7341390036434541,-1.8403169780966682 A1.75978002928448,1.75978002928448,0,1,0,-2.7854210549255063,-1.840316978096668 A1.75978002928448,1.75978002928448,0,1,0,0.7341390036434541,-1.8403169780966682 Z" fill="green" opacity="0.6" />
<path d="M0.9272838093535247,-2.0257976798142656 A1.952924834994551,1.952924834994551,0,0,1,-2.978565860635577,-2.025797679814265 A1.952924834994551,1.952924834994551,0,0,1,0.9272838093535247,-2.0257976798142656 L1.1399741432129251,-2.231553245605557 A2.165615168853951,2.165615168853951,0,1,0,-3.191256194494977,-2.2315532456055567 A2.165615168853951,2.165615168853951,0,1,0,1.1399741432129251,-2.231553245605557 Z" fill="green" opacity="0.6" />
<path d="M-0.9031887065848312,-0.2772717151315392 A0.27727171513153964,0.27727171513153964,0,0,1,-1.4577321368479104,-0.27727171513153914 A0.27727171513153964,0.27727171513153964,0,0,1,-0.9031887065848312,-0.2772717151315392 L-0.8740277857480374,-0.3064326359683327 A0.3064326359683327,0.3064326359683327,0,1,0,-1.4868930576847028,-0.30643263596833265 A0.3064326359683327,0.3064326359683327,0,1,0,-0.8740277857480374,-0.3064326359683327 Z" fill="blue" opacity="0.7" />
<path d="M4.201135954083589,-3.3540088657005516 A3.354008865700552,3.354008865700552,0,0,1,-2.5068817773175147,-3.354008865700551 A3.354008865700552,3.354008865700552,0,0,1,4.201135954083589,-3.3540088657005516 L4.553880145723175,-3.706753057340139 A3.706753057340139,3.706753057340139,0,1,0,-2.859625968957102,-3.7067530573401384 A3.706753057340139,3.706753057340139,0,1,0,4.553880145723175,-3.706753057340139 Z" fill="blue" opacity="0.7" />
<circle cx="-1.0" cy="0.0" r="0.05" fill="orange" />
<circle cx="1.0" cy="-0.0" r="0.05" fill="green" />
<circle cx="-0.0" cy="0.0" r="0.05" fill="red" />
<circle cx="-200000.0" cy="0.0" r="0.05" fill="brown" />
<circle cx="-0.0" cy="-1.0" r="0.05" fill="white" />
</svg>