<?xml version="1.0" encoding="UTF-8"?>
<svg xmlns="http://www.w3.org/2000/svg" xmlns:xlink="http://www.w3.org/1999/xlink"
     width="400" height="400.0" viewBox="-1.05 -1.05 2.1 2.1">
<defs>
</defs>
<circle cx="0" cy="0" r="1" fill="silver" />
<path d="M-0.6761080296042264,0.7368025056313873 A0.9043920000079048,0.9043920000079048,0,1,0,-0.4572010877223297,-0.889363348348423 A0.9132219233240338,0.9132219233240338,0,1,1,-0.6761080296042266,0.7368025056313872 Z" fill="blue" />
<path d="M-0.676108029604226,0.7368025056313875 A0.8852869012574396,0.8852869012574396,0,1,0,-0.4572010877223288,-0.8893633483484237 A0.8950530318539415,0.8950530318539415,0,1,1,-0.6761080296042268,0.736802505631387 Z" fill="blue" />
<path d="M-0.6761080296042263,0.7368025056313873 A0.8650111274782125,0.8650111274782125,0,1,0,-0.45720108772232915,-0.8893633483484235 A0.8752155998096794,0.8752155998096794,0,1,1,-0.6761080296042262,0.7368025056313874 Z" fill="blue" />
<path d="M-0.6761080296042259,0.7368025056313878 A0.8452141093616595,0.8452141093616595,0,1,0,-0.45720108772232826,-0.8893633483484239 A0.8549073205022525,0.8549073205022525,0,1,1,-0.676108029604226,0.7368025056313877 Z" fill="blue" />
<path d="M-0.6761080296042259,0.7368025056313878 A0.8287889616091708,0.8287889616091708,0,1,0,-0.45720108772232826,-0.8893633483484239 A0.8363349899289805,0.8363349899289805,0,1,1,-0.6761080296042257,0.7368025056313878 Z" fill="blue" />
<path d="M-0.6761080296042256,0.736802505631388 A0.8205301361651637,0.8205301361651637,0,1,0,-0.4572010877223277,-0.889363348348424 A0.8232389647436403,0.8232389647436403,0,1,1,-0.6761080296042253,0.7368025056313882 Z" fill="blue" />
<path d="M-0.6761080296042258,0.736802505631388 A0.8282731608599708,0.8282731608599708,0,0,0,-0.45720108772232804,-0.8893633483484242 A0.8217433490620367,0.8217433490620367,0,0,1,-0.6761080296042254,0.7368025056313882 Z" fill="blue" />
<path d="M-0.6761080296042253,0.7368025056313884 A0.8652038852493081,0.8652038852493081,0,0,0,-0.4572010877223274,-0.8893633483484242 A0.841945715914838,0.841945715914838,0,0,1,-0.6761080296042252,0.7368025056313885 Z" fill="blue" />
<path d="M-0.6761080296042254,0.736802505631388 A0.9553574804813647,0.9553574804813647,0,0,0,-0.4572010877223279,-0.8893633483484242 A0.9014094182854965,0.9014094182854965,0,0,1,-0.6761080296042253,0.736802505631388 Z" fill="blue" />
<path d="M-0.6761080296042256,0.736802505631388 A1.1491868007188348,1.1491868007188348,0,0,0,-0.4572010877223277,-0.8893633483484242 A1.034197673068034,1.034197673068034,0,0,1,-0.6761080296042256,0.7368025056313882 Z" fill="blue" />
<path d="M-0.6761080296042252,0.7368025056313883 A1.5794213236604935,1.5794213236604935,0,0,0,-0.45720108772232737,-0.8893633483484242 A1.3192946744380654,1.3192946744380654,0,0,1,-0.6761080296042252,0.7368025056313883 Z" fill="blue" />
<path d="M-0.6761080296042259,0.7368025056313885 A2.766147066412313,2.766147066412313,0,0,0,-0.4572010877223276,-0.8893633483484248 A2.0019452975313223,2.0019452975313223,0,0,1,-0.6761080296042252,0.7368025056313885 Z" fill="blue" />
<path d="M-0.6761080296042223,0.7368025056313698 A11.146549494942258,11.146549494942258,0,0,0,-0.4572010877223285,-0.8893633483484048 A4.472502125986584,4.472502125986584,0,0,1,-0.6761080296042241,0.7368025056313878 Z" fill="blue" />
<path d="M-0.6761080296042259,0.7368025056313805 A6.4847008072307615,6.4847008072307615,0,0,1,-0.4572010877223267,-0.8893633483484247 A27.06347166310602,27.06347166310602,0,0,0,-0.6761080296042365,0.7368025056314589 Z" fill="blue" />
<path d="M-0.6761080296042259,0.7368025056313869 A2.806523952434771,2.806523952434771,0,0,1,-0.4572010877223276,-0.8893633483484239 A3.8341812539260207,3.8341812539260207,0,0,0,-0.6761080296042254,0.7368025056313887 Z" fill="blue" />
<path d="M-0.6761080296042248,0.7368025056313889 A1.9413739661690934,1.9413739661690934,0,0,1,-0.45720108772232604,-0.8893633483484258 A2.2681932613101434,2.2681932613101434,0,0,0,-0.6761080296042252,0.736802505631388 Z" fill="blue" />
<path d="M-0.6761080296042261,0.7368025056313868 A1.5724359264765126,1.5724359264765126,0,0,1,-0.4572010877223278,-0.889363348348424 A1.724712128208915,1.724712128208915,0,0,0,-0.676108029604225,0.7368025056313888 Z" fill="blue" />
<path d="M-0.6761080296042251,0.7368025056313886 A1.3765512917696279,1.3765512917696279,0,0,1,-0.4572010877223268,-0.8893633483484246 A1.4608693286400736,1.4608693286400736,0,0,0,-0.676108029604225,0.7368025056313884 Z" fill="blue" />
<path d="M-0.676108029604225,0.7368025056313884 A1.2597650361156867,1.2597650361156867,0,0,1,-0.45720108772232637,-0.889363348348425 A1.3112757621072557,1.3112757621072557,0,0,0,-0.6761080296042252,0.7368025056313886 Z" fill="blue" />
<path d="M-0.6761080296042246,0.7368025056313888 A1.184955062502887,1.184955062502887,0,0,1,-0.457201087722326,-0.8893633483484249 A1.2184778521057442,1.2184778521057442,0,0,0,-0.6761080296042247,0.7368025056313888 Z" fill="blue" />
<path d="M-0.6761080296042239,0.7368025056313896 A1.1346466572473826,1.1346466572473826,0,0,1,-0.4572010877223248,-0.8893633483484255 A1.1574398075438783,1.1574398075438783,0,0,0,-0.6761080296042242,0.7368025056313893 Z" fill="blue" />
<path d="M-0.6761080296042252,0.736802505631388 A1.479422440343693,1.479422440343693,0,0,0,-0.45720108772232737,-0.889363348348424 A1.3935338160487274,1.3935338160487274,0,0,1,-0.6761080296042254,0.7368025056313882 Z" fill="#aaaa00" />
<path d="M-0.5,-0.8660254037844393 A1.811019725017186,1.811019725017186,0,0,0,1.0000000000000002,0.0 A1.660675262603996,1.660675262603996,0,0,1,-0.5000000000000001,-0.8660254037844393 Z" fill="black" />
<path d="M-0.5000000000000002,0.8660254037844383 A1.8110197250171847,1.8110197250171847,0,0,0,-0.5000000000000002,-0.8660254037844382 A1.660675262603995,1.660675262603995,0,0,1,-0.5000000000000004,0.866025403784439 Z" fill="black" />
<path d="M1.0,2.220446049250313e-16 A1.8110197250171867,1.8110197250171867,0,0,0,-0.5,0.8660254037844384 A1.6606752626039962,1.6606752626039962,0,0,1,1.0000000000000004,0.0 Z" fill="black" />
<path d="M0.4172596840353443,-0.5913639436937683 A1.2932698963421483,1.2932698963421483,0,0,0,-0.18643497635086836,0.4728186482198831 A0.777392335294867,0.777392335294867,0,0,1,0.164174683137647,0.565613922524602 A6.622494113647141,6.622494113647141,0,0,0,0.6040676643252123,-0.4439058331849015 A0.3563048203434833,0.3563048203434833,0,0,1,0.4172596840353443,-0.5913639436937683 Z" fill="blue" />
<path d="M-0.08910117297915665,0.996022580554145 A2.8504385627478444,2.8504385627478444,0,0,1,0.6918408990065554,-0.7220499778144198" stroke="red" stroke-width="0.05" fill="none" />
<path d="M-0.08910117297915687,0.9960225805541446 A1.847414181738511,1.847414181738511,0,0,1,0.6918408990065543,-0.7220499778144189" stroke="green" stroke-width="0.03" fill="none" />
<path d="M-0.08910117297915843,0.9960225805541516 A6.823773007054852,6.823773007054852,0,0,1,0.691840899006559,-0.7220499778144247" stroke="black" stroke-width="0.03" fill="none" />
<circle cx="0" cy="0.5" r="0.02" fill="green" />
<circle cx="0.5" cy="-0.5" r="0.02" fill="green" />
<path d="M-0.9396926207859084,0.34202014332566977 A2.3476593282576803,2.3476593282576803,0,0,0,0.34202014332566777,-0.9396926207859089 A1.9766223261582991,1.9766223261582991,0,0,1,-0.9396926207859083,0.34202014332566955 Z" fill="black" />
<path d="M-0.30204470038454323,0.9532937632071301 A1.0369617588488989,1.0369617588488989,0,0,0,-0.9548291551292449,-0.29715532052307714 A0.9575672486053277,0.9575672486053277,0,0,1,-0.3020447003845431,0.9532937632071299 Z" fill="red" />
<circle cx="-0.59905570074858" cy="-0.09984261679143011" r="0.031502867878043905" fill="green" />
<path d="M-0.5332087318649237,-0.0993718676402455 A0.06302247397654859,0.06302247397654859,0,0,1,-0.6592536798180209,-0.09937186764024548 A0.06302247397654859,0.06302247397654859,0,0,1,-0.5332087318649237,-0.0993718676402455 L-0.49697844433478316,-0.09859194611233127 A0.09457323233920373,0.09457323233920373,0,1,0,-0.6861249090131907,-0.09859194611233126 A0.09457323233920373,0.09457323233920373,0,1,0,-0.49697844433478316,-0.09859194611233127 Z" fill="green" opacity="0.6" />
<path d="M-0.45889387859671804,-0.09750981414818619 A0.12616500629239832,0.12616500629239832,0,0,1,-0.7112238911815147,-0.09750981414818617 A0.12616500629239832,0.12616500629239832,0,0,1,-0.45889387859671804,-0.09750981414818619 L-0.41900986899653947,-0.09613515719827553 A0.15780107419311304,0.15780107419311304,0,1,0,-0.7346120173827656,-0.09613515719827552 A0.15780107419311304,0.15780107419311304,0,1,0,-0.41900986899653947,-0.09613515719827553 Z" fill="green" opacity="0.6" />
<path d="M-0.3774055091598232,-0.09448031419130713 A0.1894763759880189,0.1894763759880189,0,0,1,-0.756358261135861,-0.0944803141913071 A0.1894763759880189,0.1894763759880189,0,0,1,-0.3774055091598232,-0.09448031419130713 L-0.334184937859089,-0.09256017623848352 A0.22117611957181146,0.22117611957181146,0,1,0,-0.776537177002712,-0.09256017623848349 A0.22117611957181146,0.22117611957181146,0,1,0,-0.334184937859089,-0.09256017623848352 Z" fill="green" opacity="0.6" />
<path d="M-0.28947747364183796,-0.09039204773160037 A0.2528748127477637,0.2528748127477637,0,0,1,-0.7952270991373653,-0.09039204773160034 A0.2528748127477637,0.2528748127477637,0,0,1,-0.28947747364183796,-0.09039204773160037 L-0.2434370154180014,-0.08799546418172038 A0.28453576967232025,0.28453576967232025,0,1,0,-0.8125085547626418,-0.08799546418172034 A0.28453576967232025,0.28453576967232025,0,1,0,-0.2434370154180014,-0.08799546418172038 Z" fill="green" opacity="0.6" />
<path d="M-0.19624065641887734,-0.0853919627742576 A0.31611112022666765,0.31611112022666765,0,0,1,-0.8284628968722126,-0.08539196277425756 A0.31611112022666765,0.31611112022666765,0,0,1,-0.19624065641887734,-0.0853919627742576 L-0.14808649708602906,-0.08260480408732324 A0.3475423274379098,0.3475423274379098,0,1,0,-0.8431711519618487,-0.0826048040873232 A0.3475423274379098,0.3475423274379098,0,1,0,-0.14808649708602906,-0.08260480408732324 Z" fill="green" opacity="0.6" />
<path d="M-0.09919068621339666,-0.07965864653163568 A0.37876119297641686,0.37876119297641686,0,0,1,-0.8567130721662304,-0.07965864653163564 A0.37876119297641686,0.37876119297641686,0,0,1,-0.09919068621339666,-0.07965864653163568 L-0.04978376576681698,-0.07657917853216524 A0.40969130542617394,0.40969130542617394,0,1,0,-0.8691663766191648,-0.07657917853216518 A0.40969130542617394,0.40969130542617394,0,1,0,-0.04978376576681698,-0.07657917853216524 Z" fill="green" opacity="0.6" />
<path d="M-0.0001064392869748465,-0.07339271693365679 A0.4402498623149654,0.4402498623149654,0,0,1,-0.8806061639169056,-0.07339271693365673 A0.4402498623149654,0.4402498623149654,0,0,1,-0.0001064392869748465,-0.07339271693365679 L0.04959507753909631,-0.07012578320351676 A0.47034977676019635,0.47034977676019635,0,1,0,-0.8911044759812964,-0.0701257832035167 A0.47034977676019635,0.47034977676019635,0,1,0,0.04959507753909631,-0.07012578320351676 Z" fill="green" opacity="0.6" />
<path d="M0.0990739365536239,-0.06680467138152527 A0.499901964842775,0.499901964842775,0,0,1,-0.9007299931319261,-0.06680467138152521 A0.499901964842775,0.499901964842775,0,0,1,0.0990739365536239,-0.06680467138152527 L0.14808756318032007,-0.06345502311360107 A0.528817701861926,0.528817701861926,0,1,0,-0.909547840543532,-0.063455023113601 A0.528817701861926,0.528817701861926,0,1,0,0.14808756318032007,-0.06345502311360107 Z" fill="green" opacity="0.6" />
<path d="M0.1964023831561994,-0.06010142534289531 A0.5570109352135708,0.5570109352135708,0,0,1,-0.9176194872709422,-0.06010142534289524 A0.5570109352135708,0.5570109352135708,0,0,1,0.1964023831561994,-0.06010142534289531 L0.2437981770763984,-0.05676704528367727 A0.5844004487784616,0.5844004487784616,0,1,0,-0.9250027204805249,-0.0567670452836772 A0.5844004487784616,0.5844004487784616,0,1,0,0.2437981770763984,-0.05676704528367727 Z" fill="green" opacity="0.6" />
<path d="M0.2900718959906843,-0.05347331527351515 A0.6109117876317748,0.6109117876317748,0,0,1,-0.9317516792728653,-0.05347331527351507 A0.6109117876317748,0.6109117876317748,0,0,1,0.2900718959906843,-0.05347331527351515 L0.3350408079173441,-0.05023967720522813 A0.6364788711487125,0.6364788711487125,0,1,0,-0.9379169343800808,-0.05023967720522805 A0.6364788711487125,0.6364788711487125,0,1,0,0.3350408079173441,-0.05023967720522813 Z" fill="green" opacity="0.6" />
<path d="M-0.6127404631712217,-0.13347448144637325 A0.1881064255070169,0.1881064255070169,0,0,1,-0.9889533141852556,-0.13347448144637322 A0.1881064255070169,0.1881064255070169,0,0,1,-0.6127404631712217,-0.13347448144637325 L-0.5814540431257503,-0.1308851381594371 A0.2038567858308713,0.2038567858308713,0,1,0,-0.9891676147874929,-0.13088513815943706 A0.2038567858308713,0.2038567858308713,0,1,0,-0.5814540431257503,-0.1308851381594371 Z" fill="blue" opacity="0.7" />
<path d="M0.9972263090446509,0.03351384914592038 A0.7961432141691287,0.7961432141691287,0,0,1,-0.5950601192936065,0.033513849145920475 A0.7961432141691287,0.7961432141691287,0,0,1,0.9972263090446509,0.03351384914592038 L0.9974406096468884,0.030924505858984225 A0.811893574492983,0.811893574492983,0,1,0,-0.6263465393390777,0.030924505858984326 A0.811893574492983,0.811893574492983,0,1,0,0.9974406096468884,0.030924505858984225 Z" fill="blue" opacity="0.7" />
<circle cx="-1" cy="0" r="0.05" fill="orange" />
<circle cx="1" cy="0" r="0.05" fill="green" />
<circle cx="0" cy="1" r="0.05" fill="red" />
<circle cx="0" cy="-1" r="0.05" fill="brown" />
<circle cx="0" cy="0" r="0.05" fill="white" />
</svg>