<svg version="1.1" viewBox="0.0 0.0 960.0 720.0" fill="none" stroke="none" stroke-linecap="square" stroke-miterlimit="10" xmlns:xlink="http://www.w3.org/1999/xlink" xmlns="http://www.w3.org/2000/svg"><clipPath id="p.0"><path d="m0 0l960.0 0l0 720.0l-960.0 0l0 -720.0z" clip-rule="nonzero"/></clipPath><g clip-path="url(#p.0)"><path fill="#000000" fill-opacity="0.0" d="m0 0l960.0 0l0 720.0l-960.0 0z" fill-rule="evenodd"/><path fill="#ffffff" d="m58.83202 360.0l0 0c0 -8.5060425 15.680614 -15.401581 35.023624 -15.401581l0 0c19.34301 0 35.02363 6.8955383 35.02363 15.401581l0 0c0 8.5060425 -15.680618 15.401581 -35.02363 15.401581l0 0c-19.34301 0 -35.023624 -6.8955383 -35.023624 -15.401581z" fill-rule="evenodd"/><path stroke="#000000" stroke-width="1.0" stroke-linejoin="round" stroke-linecap="butt" d="m58.83202 360.0l0 0c0 -8.5060425 15.680614 -15.401581 35.023624 -15.401581l0 0c19.34301 0 35.02363 6.8955383 35.02363 15.401581l0 0c0 8.5060425 -15.680618 15.401581 -35.02363 15.401581l0 0c-19.34301 0 -35.023624 -6.8955383 -35.023624 -15.401581z" fill-rule="evenodd"/><defs><radialGradient id="p.1" gradientUnits="userSpaceOnUse" gradientTransform="matrix(21.25223471343568 0.0 0.0 21.25223471343568 0.0 0.0)" spreadMethod="pad" cx="36.12008601836401" cy="9.425595158860258" fx="36.12008601836401" fy="9.425595158860258" r="21.252235412597656"><stop offset="0.0" stop-color="#cfe2f3"/><stop offset="1.0" stop-color="#6fa8dc"/></radialGradient></defs><path fill="url(#p.1)" d="m448.26248 360.0l0 0c0 -88.19162 71.49344 -159.68504 159.68503 -159.68504l0 0l0 0c42.351074 0 82.96759 16.823914 112.91437 46.770676c29.946777 29.946747 46.77069 70.56326 46.77069 112.91437l0 0l0 0c0 88.19162 -71.49347 159.68506 -159.68506 159.68506l0 0l0 0c-88.19159 0 -159.68503 -71.49344 -159.68503 -159.68506z" fill-rule="evenodd"/><path fill="#000000" d="m95.26247 360.0l0 0c0 -4.6357117 3.757988 -8.393707 8.3937 -8.393707l0 0c2.2261505 0 4.361122 0.8843384 5.9352417 2.4584656c1.5741272 1.5741272 2.458458 3.7091064 2.458458 5.9352417l0 0c0 4.6357117 -3.757988 8.393707 -8.3937 8.393707l0 0c-4.6357117 0 -8.3937 -3.7579956 -8.3937 -8.393707z" fill-rule="evenodd"/><path stroke="#000000" stroke-width="1.0" stroke-linejoin="round" stroke-linecap="butt" d="m95.26247 360.0l0 0c0 -4.6357117 3.757988 -8.393707 8.3937 -8.393707l0 0c2.2261505 0 4.361122 0.8843384 5.9352417 2.4584656c1.5741272 1.5741272 2.458458 3.7091064 2.458458 5.9352417l0 0c0 4.6357117 -3.757988 8.393707 -8.3937 8.393707l0 0c-4.6357117 0 -8.3937 -3.7579956 -8.3937 -8.393707z" fill-rule="evenodd"/><path fill="#000000" fill-opacity="0.0" d="m104.338585 359.91864l589.95276 -198.07875" fill-rule="evenodd"/><path stroke="#ff0000" stroke-width="2.0" stroke-linejoin="round" stroke-linecap="butt" d="m104.338585 359.91864l578.5769 -194.25925" fill-rule="evenodd"/><path fill="#ff0000" stroke="#ff0000" stroke-width="2.0" stroke-linecap="butt" d="m683.9669 168.79106l7.5526733 -6.0205383l-9.65564 -0.2427826z" fill-rule="evenodd"/><path fill="#000000" fill-opacity="0.0" d="m104.31233 359.87402l591.3386 196.66144" fill-rule="evenodd"/><path stroke="#ff0000" stroke-width="2.0" stroke-linejoin="round" stroke-linecap="butt" d="m104.31233 359.87402l579.9518 192.87451" fill-rule="evenodd"/><path fill="#ff0000" stroke="#ff0000" stroke-width="2.0" stroke-linecap="butt" d="m683.2216 555.8832l9.654907 -0.27044678l-7.5699463 -5.9988403z" fill-rule="evenodd"/><path fill="#000000" fill-opacity="0.0" d="m560.9012 206.66689l0 0c31.795654 0.092559814 61.138916 29.373688 76.94452 76.78154c15.805542 47.407837 15.663879 105.71515 -0.37158203 152.89453c-16.0354 47.179382 -45.51996 76.03839 -77.315 75.67468l0.59155273 -152.6738z" fill-rule="evenodd"/><path fill="#000000" fill-opacity="0.0" d="m560.9012 206.66689l0 0c31.795654 0.092559814 61.138916 29.373688 76.94452 76.78154c15.805542 47.407837 15.663879 105.71515 -0.37158203 152.89453c-16.0354 47.179382 -45.51996 76.03839 -77.315 75.67468" fill-rule="evenodd"/><path stroke="#ff0000" stroke-width="1.0" stroke-linejoin="round" stroke-linecap="butt" d="m560.9012 206.66689l0 0c31.795654 0.092559814 61.138916 29.373688 76.94452 76.78154c15.805542 47.407837 15.663879 105.71515 -0.37158203 152.89453c-16.0354 47.179382 -45.51996 76.03839 -77.315 75.67468" fill-rule="evenodd"/><path fill="#000000" fill-opacity="0.0" d="m607.9475 519.68506l0 49.13385" fill-rule="evenodd"/><path stroke="#00ff00" stroke-width="1.0" stroke-linejoin="round" stroke-linecap="butt" d="m607.9475 519.68506l0 43.13385" fill-rule="evenodd"/><path fill="#00ff00" stroke="#00ff00" stroke-width="1.0" stroke-linecap="butt" d="m606.2958 562.8189l1.6517334 4.538086l1.6517334 -4.538086z" fill-rule="evenodd"/><path fill="#000000" fill-opacity="0.0" d="m607.9475 200.31496l0 -45.76378" fill-rule="evenodd"/><path stroke="#00ff00" stroke-width="1.0" stroke-linejoin="round" stroke-linecap="butt" d="m607.9475 200.31496l0 -39.76378" fill-rule="evenodd"/><path fill="#00ff00" stroke="#00ff00" stroke-width="1.0" stroke-linecap="butt" d="m609.59924 160.55118l-1.6517334 -4.538101l-1.6517334 4.538101z" fill-rule="evenodd"/></g></svg>